<svg id="Calque_1" data-name="Calque 1" xmlns="http://www.w3.org/2000/svg" xmlns:xlink="http://www.w3.org/1999/xlink" viewBox="0 0 139.37 129.33"><defs><style>.cls-1{fill:#4e626e;}.cls-2{fill:url(#Dégradé_sans_nom_180);}.cls-3{fill:url(#Dégradé_sans_nom_14);}.cls-4{fill:url(#Dégradé_sans_nom_14-2);}.cls-5{fill:url(#Dégradé_sans_nom_14-3);}.cls-6{fill:url(#Dégradé_sans_nom_8);}.cls-7{fill:url(#Dégradé_sans_nom_13);}.cls-8{fill:url(#Dégradé_sans_nom_8-2);}.cls-9{fill:url(#Dégradé_sans_nom_15);}.cls-10{fill:url(#Dégradé_sans_nom_13-2);}.cls-11{fill:url(#Dégradé_sans_nom_6);}.cls-12{fill:url(#Dégradé_sans_nom_14-4);}.cls-13{fill:url(#Dégradé_sans_nom_15-2);}.cls-14{fill:url(#Dégradé_sans_nom_112);}.cls-15{fill:url(#Dégradé_sans_nom_112-2);}.cls-16{fill:url(#Dégradé_sans_nom_74);}.cls-17{fill:url(#Dégradé_sans_nom_111);}.cls-18{fill:url(#Dégradé_sans_nom_112-3);}.cls-19{fill:url(#Dégradé_sans_nom_111-2);}.cls-20{fill:url(#Dégradé_sans_nom_74-2);}.cls-21{fill:url(#Dégradé_sans_nom_69);}.cls-22{fill:url(#Dégradé_sans_nom_111-3);}.cls-23{fill:url(#Dégradé_sans_nom_74-3);}.cls-24{fill:url(#Dégradé_sans_nom_112-4);}.cls-25{fill:url(#Dégradé_sans_nom_180-2);}.cls-26{fill:url(#Dégradé_sans_nom_37);}.cls-27{fill:url(#Dégradé_sans_nom_38);}.cls-28{fill:url(#Dégradé_sans_nom_39);}.cls-29{fill:url(#Dégradé_sans_nom_39-2);}.cls-30{fill:url(#Dégradé_sans_nom_180-3);}.cls-31{fill:url(#Dégradé_sans_nom_38-2);}.cls-32{fill:url(#Dégradé_sans_nom_37-2);}.cls-33{fill:#bd8028;}.cls-34{fill:#dca300;}</style><linearGradient id="Dégradé_sans_nom_180" x1="243.48" y1="293.36" x2="286.48" y2="293.36" gradientTransform="matrix(1.27, 0, 0, 1.27, -257.08, -315.03)" gradientUnits="userSpaceOnUse"><stop offset="0" stop-color="#f4d76f"/><stop offset="1" stop-color="#dca200"/></linearGradient><linearGradient id="Dégradé_sans_nom_14" x1="-1155.54" y1="1064.9" x2="-1127.26" y2="1064.9" gradientTransform="matrix(0.74, 0.29, -0.29, 0.74, 1183.77, -415.18)" gradientUnits="userSpaceOnUse"><stop offset="0" stop-color="#00474c"/><stop offset="0.11" stop-color="#00575e"/><stop offset="0.35" stop-color="#00737d"/><stop offset="0.59" stop-color="#008794"/><stop offset="0.81" stop-color="#0094a2"/><stop offset="1" stop-color="#0098a7"/></linearGradient><linearGradient id="Dégradé_sans_nom_14-2" x1="-1154.25" y1="1066.76" x2="-1137.67" y2="1066.76" xlink:href="#Dégradé_sans_nom_14"/><linearGradient id="Dégradé_sans_nom_14-3" x1="-1158.36" y1="1068.66" x2="-1145.7" y2="1068.66" xlink:href="#Dégradé_sans_nom_14"/><linearGradient id="Dégradé_sans_nom_8" x1="-1158.36" y1="1077.51" x2="-1142.31" y2="1077.51" gradientTransform="matrix(0.74, 0.29, -0.29, 0.74, 1183.77, -415.18)" gradientUnits="userSpaceOnUse"><stop offset="0" stop-color="#0098a7"/><stop offset="0.25" stop-color="#0399a8"/><stop offset="0.44" stop-color="#0c9caa"/><stop offset="0.6" stop-color="#1ca1ae"/><stop offset="0.75" stop-color="#33a8b3"/><stop offset="0.89" stop-color="#4fb1ba"/><stop offset="1" stop-color="#6bbac1"/></linearGradient><linearGradient id="Dégradé_sans_nom_13" x1="-1145.7" y1="1075.06" x2="-1131.58" y2="1075.06" gradientTransform="matrix(0.74, 0.29, -0.29, 0.74, 1183.77, -415.18)" gradientUnits="userSpaceOnUse"><stop offset="0" stop-color="#00474c"/><stop offset="0.34" stop-color="#005f67"/><stop offset="0.76" stop-color="#007983"/><stop offset="1" stop-color="#00828e"/></linearGradient><linearGradient id="Dégradé_sans_nom_8-2" x1="-1142.49" y1="1066.76" x2="-1128.38" y2="1066.76" xlink:href="#Dégradé_sans_nom_8"/><linearGradient id="Dégradé_sans_nom_15" x1="-1149.73" y1="1053.98" x2="-1133.97" y2="1053.98" gradientTransform="matrix(0.74, 0.29, -0.29, 0.74, 1183.77, -415.18)" gradientUnits="userSpaceOnUse"><stop offset="0" stop-color="#6bbac1"/><stop offset="0.25" stop-color="#68b8c0"/><stop offset="0.44" stop-color="#5fb4bb"/><stop offset="0.6" stop-color="#4fabb4"/><stop offset="0.75" stop-color="#389fa9"/><stop offset="0.89" stop-color="#1c909b"/><stop offset="1" stop-color="#00828e"/></linearGradient><linearGradient id="Dégradé_sans_nom_13-2" x1="-1140.42" y1="1061.95" x2="-1131.58" y2="1061.95" xlink:href="#Dégradé_sans_nom_13"/><linearGradient id="Dégradé_sans_nom_6" x1="-1157" y1="1055.59" x2="-1140.42" y2="1055.59" gradientTransform="matrix(0.74, 0.29, -0.29, 0.74, 1183.77, -415.18)" gradientUnits="userSpaceOnUse"><stop offset="0" stop-color="#0098a7"/><stop offset="0.44" stop-color="#0095a4"/><stop offset="0.76" stop-color="#008d9b"/><stop offset="1" stop-color="#00828e"/></linearGradient><linearGradient id="Dégradé_sans_nom_14-4" x1="-1160.7" y1="1055.59" x2="-1149.73" y2="1055.59" xlink:href="#Dégradé_sans_nom_14"/><linearGradient id="Dégradé_sans_nom_15-2" x1="-1160.7" y1="1067.48" x2="-1157" y2="1067.48" xlink:href="#Dégradé_sans_nom_15"/><linearGradient id="Dégradé_sans_nom_112" x1="1261.11" y1="-12.26" x2="1281.21" y2="-12.26" gradientTransform="matrix(1.52, -0.42, 0.42, 1.52, -1798.95, 564.76)" gradientUnits="userSpaceOnUse"><stop offset="0" stop-color="#bd4b5d"/><stop offset="0.33" stop-color="#bb384e"/><stop offset="0.69" stop-color="#ba2a44"/><stop offset="1" stop-color="#ba2540"/></linearGradient><linearGradient id="Dégradé_sans_nom_112-2" x1="1265.94" y1="-9.71" x2="1278.18" y2="-9.71" xlink:href="#Dégradé_sans_nom_112"/><linearGradient id="Dégradé_sans_nom_74" x1="1234.83" y1="-129.94" x2="1240.33" y2="-138.19" gradientTransform="matrix(1.34, -0.37, 0.37, 1.34, -1473.48, 657.3)" gradientUnits="userSpaceOnUse"><stop offset="0" stop-color="#531b1d"/><stop offset="0.11" stop-color="#591b1f"/><stop offset="1" stop-color="#88182c"/></linearGradient><linearGradient id="Dégradé_sans_nom_111" x1="1278.18" y1="-11.53" x2="1281.38" y2="-11.53" gradientTransform="matrix(1.52, -0.42, 0.42, 1.52, -1798.95, 564.76)" gradientUnits="userSpaceOnUse"><stop offset="0" stop-color="#6c1422"/><stop offset="0.44" stop-color="#951d32"/><stop offset="0.79" stop-color="#b0233c"/><stop offset="1" stop-color="#ba2540"/></linearGradient><linearGradient id="Dégradé_sans_nom_112-3" x1="1272.33" y1="-18.84" x2="1281.38" y2="-18.84" xlink:href="#Dégradé_sans_nom_112"/><linearGradient id="Dégradé_sans_nom_111-2" x1="1265.94" y1="-18.84" x2="1278.18" y2="-18.84" xlink:href="#Dégradé_sans_nom_111"/><linearGradient id="Dégradé_sans_nom_74-2" x1="1260.88" y1="-13.06" x2="1265.94" y2="-13.06" gradientTransform="matrix(1.52, -0.42, 0.42, 1.52, -1798.95, 564.76)" xlink:href="#Dégradé_sans_nom_74"/><linearGradient id="Dégradé_sans_nom_69" x1="1261.53" y1="-19.32" x2="1272.33" y2="-19.32" gradientTransform="matrix(1.52, -0.42, 0.42, 1.52, -1798.95, 564.76)" gradientUnits="userSpaceOnUse"><stop offset="0" stop-color="#88182c"/><stop offset="0.1" stop-color="#911a2f"/><stop offset="0.42" stop-color="#a72039"/><stop offset="0.73" stop-color="#b5243e"/><stop offset="1" stop-color="#ba2540"/></linearGradient><linearGradient id="Dégradé_sans_nom_111-3" x1="1260.88" y1="-9.71" x2="1271.02" y2="-9.71" xlink:href="#Dégradé_sans_nom_111"/><linearGradient id="Dégradé_sans_nom_74-3" x1="1219.18" y1="-131.14" x2="1230.66" y2="-131.14" xlink:href="#Dégradé_sans_nom_74"/><linearGradient id="Dégradé_sans_nom_112-4" x1="1229.5" y1="-130.22" x2="1241.64" y2="-130.22" gradientTransform="matrix(1.34, -0.37, 0.37, 1.34, -1473.48, 657.3)" xlink:href="#Dégradé_sans_nom_112"/><linearGradient id="Dégradé_sans_nom_180-2" x1="257.33" y1="290.69" x2="281.12" y2="290.69" xlink:href="#Dégradé_sans_nom_180"/><linearGradient id="Dégradé_sans_nom_37" x1="263.44" y1="286.53" x2="281.8" y2="286.53" gradientTransform="matrix(1.27, 0, 0, 1.27, -257.08, -315.03)" gradientUnits="userSpaceOnUse"><stop offset="0" stop-color="#dca200"/><stop offset="1" stop-color="#eabb53"/></linearGradient><linearGradient id="Dégradé_sans_nom_38" x1="258.01" y1="274.97" x2="281.8" y2="274.97" gradientTransform="matrix(1.27, 0, 0, 1.27, -257.08, -315.03)" gradientUnits="userSpaceOnUse"><stop offset="0" stop-color="#9b731c"/><stop offset="1" stop-color="#dca200"/></linearGradient><linearGradient id="Dégradé_sans_nom_39" x1="65.12" y1="28.95" x2="65.12" y2="46.95" gradientUnits="userSpaceOnUse"><stop offset="0" stop-color="#f4d76f"/><stop offset="0.27" stop-color="#f2d46c"/><stop offset="0.47" stop-color="#eccc63"/><stop offset="0.64" stop-color="#e2be53"/><stop offset="0.81" stop-color="#d4ab3c"/><stop offset="0.96" stop-color="#c29220"/><stop offset="1" stop-color="#bc8916"/></linearGradient><linearGradient id="Dégradé_sans_nom_39-2" x1="53.66" y1="58.64" x2="78.66" y2="53.64" xlink:href="#Dégradé_sans_nom_39"/><linearGradient id="Dégradé_sans_nom_180-3" x1="248.4" y1="309.09" x2="271.77" y2="309.09" xlink:href="#Dégradé_sans_nom_180"/><linearGradient id="Dégradé_sans_nom_38-2" x1="243.39" y1="298.68" x2="257.33" y2="298.68" xlink:href="#Dégradé_sans_nom_38"/><linearGradient id="Dégradé_sans_nom_37-2" x1="257.33" y1="305.94" x2="281.12" y2="305.94" xlink:href="#Dégradé_sans_nom_37"/></defs><title>Logo-LPT</title><path class="cls-1" d="M1.39,59.79H5.21v22.9H11.5V86.5H1.39Z"/><path class="cls-1" d="M16.21,79.93a10.36,10.36,0,0,0,.1,1.49,5.56,5.56,0,0,0,.33,1.28,2.33,2.33,0,0,0,.62.9,1.32,1.32,0,0,0,.93.34,1.6,1.6,0,0,0,1.49-.8,6.49,6.49,0,0,0,.64-2.44h3.62a7.35,7.35,0,0,1-1.46,4.58,5.27,5.27,0,0,1-4.23,1.57,6.12,6.12,0,0,1-3.41-.8A4.81,4.81,0,0,1,13,83.94a9.06,9.06,0,0,1-.72-3c-.08-1.09-.13-2.18-.13-3.27a24,24,0,0,1,.22-3.33,8.71,8.71,0,0,1,.88-2.86,4.9,4.9,0,0,1,1.88-2,6.17,6.17,0,0,1,3.26-.74,6,6,0,0,1,2.88.62,4.54,4.54,0,0,1,1.76,1.77A7.88,7.88,0,0,1,23.94,74a26.31,26.31,0,0,1,.23,3.61v1h-8Zm4-5.75a5.13,5.13,0,0,0-.3-1.28,1.78,1.78,0,0,0-.62-.81,1.71,1.71,0,0,0-1-.27,1.56,1.56,0,0,0-1,.31,2.2,2.2,0,0,0-.63.8,4.56,4.56,0,0,0-.33,1.1,7.26,7.26,0,0,0-.1,1.22v.67h4.11Q20.29,74.93,20.2,74.18Z"/><path class="cls-1" d="M28.92,81.44a2.85,2.85,0,0,0,.54,1.81,1.86,1.86,0,0,0,1.56.69,2.07,2.07,0,0,0,1.49-.52,2,2,0,0,0,.56-1.53,1.72,1.72,0,0,0-.44-1.27,3.28,3.28,0,0,0-1-.69l-2.83-1.12A5.37,5.37,0,0,1,26.27,77a5,5,0,0,1-.85-3,6,6,0,0,1,.33-2,4.17,4.17,0,0,1,1-1.65,4.8,4.8,0,0,1,1.79-1.12,7.38,7.38,0,0,1,2.64-.42,5.61,5.61,0,0,1,4.05,1.28,4.82,4.82,0,0,1,1.32,3.62v.71H33a3.81,3.81,0,0,0-.39-2,1.52,1.52,0,0,0-1.39-.63,2,2,0,0,0-1.33.47,1.68,1.68,0,0,0-.57,1.39,2,2,0,0,0,.37,1.15A2.65,2.65,0,0,0,31,75.7l2.43.9a5.47,5.47,0,0,1,2.68,1.84,5.39,5.39,0,0,1,.79,3.09,6,6,0,0,1-.44,2.39,4.62,4.62,0,0,1-1.21,1.68,4.71,4.71,0,0,1-1.84,1,9.07,9.07,0,0,1-2.35.28,9.39,9.39,0,0,1-2.81-.35,3.76,3.76,0,0,1-2.7-2.77,9.23,9.23,0,0,1-.26-2.26v-.61h3.61Z"/><path class="cls-1" d="M12.71,102.39v3.47c0,4.28-1.88,6.6-5.69,6.6H5.21v10H1.39V95.79H7C10.83,95.79,12.71,98.12,12.71,102.39ZM5.21,99.6v9.05H7c1.21,0,1.87-.61,1.87-2.52v-4c0-1.91-.66-2.52-1.87-2.52Z"/><path class="cls-1" d="M18.13,107.05h5.24v3.81H18.13v7.83h6.59v3.81H14.31V95.79H24.72V99.6H18.13Zm5.45-16.91L20,94.38H17.47l2.36-4.24Z"/><path class="cls-1" d="M38.06,102.39v3.47c0,4.28-1.88,6.6-5.7,6.6h-1.8v10H26.74V95.79h5.62C36.18,95.79,38.06,98.12,38.06,102.39Zm-7.5-2.79v9.05h1.8c1.22,0,1.88-.61,1.88-2.52v-4c0-1.91-.66-2.52-1.88-2.52Z"/><path class="cls-1" d="M39.65,95.79h3.82V122.5H39.65Z"/><path class="cls-1" d="M44.79,95.79H56.6V99.6h-4v22.9H48.79V99.6h-4Z"/><path class="cls-1" d="M61.74,107.05H67v3.81H61.74v7.83h6.6v3.81H57.92V95.79H68.34V99.6h-6.6Z"/><path class="cls-1" d="M75.49,95.48c3.71,0,5.62,2.45,5.62,6.72V103H77.5v-1.11c0-1.91-.69-2.63-1.91-2.63s-1.91.72-1.91,2.63c0,5.5,7.47,6.53,7.47,14.16,0,4.28-2,6.72-5.7,6.72s-5.69-2.44-5.69-6.72v-1.64h3.61v1.91c0,1.91.76,2.59,2,2.59s2-.68,2-2.59c0-5.5-7.47-6.53-7.47-14.16C69.86,97.93,71.77,95.48,75.49,95.48Z"/><path class="cls-1" d="M86.91,95.79H98.72V99.6h-4v22.9H90.9V99.6h-4Z"/><path class="cls-1" d="M103.86,107.05h5.24v3.81h-5.24v7.83h6.59v3.81H100V95.79h10.41V99.6h-6.59Z"/><path class="cls-1" d="M123.55,112.54v3.55c0,4.28-2,6.72-5.7,6.72s-5.7-2.44-5.7-6.72V102.2c0-4.27,1.95-6.72,5.7-6.72s5.7,2.45,5.7,6.72v2.59h-3.62v-2.86c0-1.91-.76-2.63-2-2.63s-2,.72-2,2.63v14.43c0,1.91.77,2.59,2,2.59s2-.68,2-2.59v-3.82Z"/><path class="cls-1" d="M129.34,122.5h-3.82V95.79h3.82v11.45h4.34V95.79h3.89V122.5h-3.89V111.05h-4.34Z"/><polygon class="cls-2" points="71.16 30.05 52.49 50.22 59.16 79.22 88.32 85.89 107.16 65.72 101.16 37.05 71.16 30.05"/><polygon class="cls-3" points="29.49 47.89 39.99 43.39 42.66 31.39 32.66 23.55 21.99 27.89 18.99 40.05 29.49 47.89"/><polygon class="cls-4" points="28.39 43.1 36.94 32.76 23.79 30.32 28.39 43.1"/><polygon class="cls-5" points="28.39 43.1 18.89 39.84 23.79 30.32 28.39 43.1"/><polygon class="cls-6" points="18.89 39.84 29.33 48.04 28.39 43.1 18.89 39.84"/><polygon class="cls-7" points="28.39 43.1 29.33 48.04 40.22 43.59 28.39 43.1"/><polygon class="cls-8" points="28.39 43.1 40.22 43.59 36.94 32.76 28.39 43.1"/><polygon class="cls-9" points="32.8 23.11 43.06 31.17 36.94 32.76 32.8 23.11"/><polygon class="cls-10" points="36.94 32.76 40.22 43.59 43.06 31.17 36.94 32.76"/><polygon class="cls-11" points="36.94 32.76 32.8 23.11 23.79 30.32 36.94 32.76"/><polygon class="cls-12" points="23.79 30.32 21.74 27.52 32.8 23.11 23.79 30.32"/><polygon class="cls-13" points="21.74 27.52 18.89 39.84 23.79 30.32 21.74 27.52"/><polygon class="cls-14" points="135.16 5.39 119.32 0.39 104.99 11.39 108.99 29.39 125.16 34.22 138.99 23.55 135.16 5.39"/><polygon class="cls-15" points="131.85 11.35 112.91 14.96 125.22 29.69 131.85 11.35"/><polygon class="cls-16" points="131.85 11.35 139.37 23.64 125.22 29.69 131.85 11.35"/><polygon class="cls-17" points="139.37 23.64 135.33 5.04 131.85 11.35 139.37 23.64"/><polygon class="cls-18" points="131.85 11.35 135.33 5.04 119.21 0 131.85 11.35"/><polygon class="cls-19" points="131.85 11.35 119.21 0 112.91 14.96 131.85 11.35"/><polygon class="cls-20" points="108.63 29.42 104.67 11.14 112.91 14.96 108.63 29.42"/><polygon class="cls-21" points="112.91 14.96 119.21 0 104.67 11.14 112.91 14.96"/><polygon class="cls-22" points="112.91 14.96 108.63 29.42 125.22 29.69 112.91 14.96"/><polygon class="cls-23" points="125.22 29.69 124.92 34.66 108.63 29.42 125.22 29.69"/><polygon class="cls-24" points="124.92 34.66 139.37 23.64 125.22 29.69 124.92 34.66"/><polygon class="cls-25" points="77.87 39.34 70.09 69.81 100.34 61.81 77.87 39.34"/><polygon class="cls-26" points="77.87 39.34 101.2 36.75 100.34 61.81 77.87 39.34"/><polygon class="cls-27" points="101.2 36.75 70.96 29.84 77.87 39.34 101.2 36.75"/><polygon class="cls-28" points="77.87 39.34 70.96 29.84 52.38 50.15 77.87 39.34"/><polygon class="cls-29" points="77.87 39.34 52.38 50.15 70.09 69.81 77.87 39.34"/><polygon class="cls-30" points="88.46 86.12 58.75 79.31 70.09 69.81 88.46 86.12"/><polygon class="cls-31" points="70.09 69.81 52.38 50.15 58.75 79.31 70.09 69.81"/><polygon class="cls-32" points="70.09 69.81 88.46 86.12 100.34 61.81 70.09 69.81"/><polygon class="cls-33" points="100.34 61.81 107.47 65.7 88.46 86.12 100.34 61.81"/><polygon class="cls-34" points="107.47 65.7 101.2 36.75 100.34 61.81 107.47 65.7"/></svg>