<?xml version="1.0" encoding="UTF-8"?>
<svg id="Calque_2" data-name="Calque 2" xmlns="http://www.w3.org/2000/svg" xmlns:xlink="http://www.w3.org/1999/xlink" viewBox="0 0 900.24 240.45">
  <defs>
    <style>
      .cls-1 {
        fill: url(#Dégradé_sans_nom_8);
      }

      .cls-1, .cls-2 {
        stroke-width: 0px;
      }

      .cls-2 {
        fill: #202450;
      }
    </style>
    <linearGradient id="Dégradé_sans_nom_8" data-name="Dégradé sans nom 8" x1="190.44" y1="20.86" x2="-15.83" y2="216.6" gradientUnits="userSpaceOnUse">
      <stop offset="0" stop-color="#7f12f0"/>
      <stop offset=".77" stop-color="#570ff2"/>
      <stop offset=".99" stop-color="#2f0df4"/>
    </linearGradient>
  </defs>
  <g id="Calque_1-2" data-name="Calque 1">
    <g>
      <g>
        <path class="cls-2" d="m293.04,176.03v-106.2h40.05c11.1,0,20.57,2.1,28.43,6.3,7.85,4.2,13.85,10.25,18,18.15,4.15,7.9,6.23,17.55,6.23,28.95s-2.03,20.73-6.08,28.57c-4.05,7.85-9.98,13.85-17.77,18-7.8,4.15-17.35,6.23-28.65,6.23h-40.2Zm21.45-19.8h18.6c7.4,0,13.35-1.4,17.85-4.2,4.5-2.8,7.8-6.7,9.9-11.7,2.1-5,3.15-10.75,3.15-17.25s-1.03-11.97-3.08-17.02c-2.05-5.05-5.35-9.02-9.9-11.92-4.55-2.9-10.68-4.35-18.38-4.35h-18.15v66.45Z"/>
        <path class="cls-2" d="m424.59,177.07c-3.6,0-7.08-.48-10.42-1.42-3.35-.95-6.33-2.42-8.92-4.42-2.6-2-4.65-4.5-6.15-7.5s-2.25-6.5-2.25-10.5c0-5.4,1.1-9.72,3.3-12.98,2.2-3.25,5.15-5.72,8.85-7.43,3.7-1.7,7.97-2.85,12.82-3.45,4.85-.6,9.87-.9,15.08-.9h11.4c0-2.9-.52-5.48-1.58-7.73-1.05-2.25-2.62-4-4.72-5.25-2.1-1.25-4.8-1.88-8.1-1.88-2.1,0-4.12.28-6.08.82-1.95.55-3.58,1.33-4.88,2.33-1.3,1-2.15,2.3-2.55,3.9h-21.3c.6-4.4,2-8.17,4.2-11.32,2.2-3.15,4.95-5.72,8.25-7.73,3.3-2,6.92-3.47,10.88-4.43,3.95-.95,8.02-1.42,12.23-1.42,11.5,0,20,3.28,25.5,9.83,5.5,6.55,8.25,15.82,8.25,27.82v42.6h-18.9l-.3-10.2c-2.5,3.5-5.32,6.05-8.48,7.65-3.15,1.6-6.18,2.6-9.07,3-2.9.4-5.25.6-7.05.6Zm4.8-16.65c3.5,0,6.7-.7,9.6-2.1,2.9-1.4,5.2-3.3,6.9-5.7,1.7-2.4,2.55-5.1,2.55-8.1v-1.95h-14.4c-2.1,0-4.12.1-6.08.3-1.95.2-3.7.58-5.25,1.12-1.55.55-2.77,1.42-3.67,2.62-.9,1.2-1.35,2.8-1.35,4.8s.52,3.68,1.58,5.02c1.05,1.35,2.48,2.35,4.27,3,1.8.65,3.75.98,5.85.98Z"/>
        <path class="cls-2" d="m520.59,176.03c-6.6,0-12.13-.8-16.58-2.4-4.45-1.6-7.8-4.32-10.05-8.18-2.25-3.85-3.38-9.12-3.38-15.82v-33.9h-11.7v-18.75h11.7v-21.15h21v21.15h17.25v18.75h-17.25v30.9c0,3.3.6,5.9,1.8,7.8,1.2,1.9,3.9,2.85,8.1,2.85h6.6v18.75h-7.5Z"/>
        <path class="cls-2" d="m564.69,177.07c-3.6,0-7.08-.48-10.42-1.42-3.35-.95-6.33-2.42-8.92-4.42-2.6-2-4.65-4.5-6.15-7.5s-2.25-6.5-2.25-10.5c0-5.4,1.1-9.72,3.3-12.98,2.2-3.25,5.15-5.72,8.85-7.43,3.7-1.7,7.97-2.85,12.82-3.45,4.85-.6,9.87-.9,15.08-.9h11.4c0-2.9-.52-5.48-1.58-7.73-1.05-2.25-2.62-4-4.72-5.25-2.1-1.25-4.8-1.88-8.1-1.88-2.1,0-4.12.28-6.08.82-1.95.55-3.58,1.33-4.88,2.33-1.3,1-2.15,2.3-2.55,3.9h-21.3c.6-4.4,2-8.17,4.2-11.32,2.2-3.15,4.95-5.72,8.25-7.73,3.3-2,6.92-3.47,10.88-4.43,3.95-.95,8.02-1.42,12.23-1.42,11.5,0,20,3.28,25.5,9.83,5.5,6.55,8.25,15.82,8.25,27.82v42.6h-18.9l-.3-10.2c-2.5,3.5-5.32,6.05-8.48,7.65-3.15,1.6-6.18,2.6-9.07,3-2.9.4-5.25.6-7.05.6Zm4.8-16.65c3.5,0,6.7-.7,9.6-2.1,2.9-1.4,5.2-3.3,6.9-5.7,1.7-2.4,2.55-5.1,2.55-8.1v-1.95h-14.4c-2.1,0-4.12.1-6.08.3-1.95.2-3.7.58-5.25,1.12-1.55.55-2.77,1.42-3.67,2.62-.9,1.2-1.35,2.8-1.35,4.8s.52,3.68,1.58,5.02c1.05,1.35,2.48,2.35,4.27,3,1.8.65,3.75.98,5.85.98Z"/>
        <path class="cls-2" d="m627.69,176.03v-106.2h46.5c4.9,0,9.38.48,13.42,1.43,4.05.95,7.58,2.48,10.58,4.57,3,2.1,5.32,4.9,6.98,8.4,1.65,3.5,2.47,7.95,2.47,13.35,0,4.4-1,8.5-3,12.3-2,3.8-4.95,6.7-8.85,8.7,5.2,1.7,9.3,4.63,12.3,8.78,3,4.15,4.5,9.63,4.5,16.42,0,6.1-1.15,11.23-3.45,15.38-2.3,4.15-5.45,7.48-9.45,9.98-4,2.5-8.65,4.27-13.95,5.32-5.3,1.05-10.95,1.58-16.95,1.58h-41.1Zm21.45-62.85h19.65c2.7,0,5.15-.25,7.35-.75,2.2-.5,4.05-1.3,5.55-2.4,1.5-1.1,2.65-2.48,3.45-4.12.8-1.65,1.2-3.57,1.2-5.77.1-3-.55-5.22-1.95-6.68-1.4-1.45-3.3-2.45-5.7-3-2.4-.55-5.1-.82-8.1-.82h-21.45v23.55Zm0,43.05h22.2c2.7,0,5.22-.2,7.58-.6,2.35-.4,4.42-1.07,6.22-2.02,1.8-.95,3.23-2.27,4.28-3.98,1.05-1.7,1.57-3.8,1.57-6.3,0-2.3-.43-4.22-1.27-5.77-.85-1.55-2.05-2.82-3.6-3.82-1.55-1-3.35-1.7-5.4-2.1-2.05-.4-4.33-.6-6.83-.6h-24.75v25.2Z"/>
        <path class="cls-2" d="m736.89,89.03c-3.9,0-7.05-1.17-9.45-3.52-2.4-2.35-3.6-5.37-3.6-9.08,0-3.9,1.25-7.05,3.75-9.45,2.5-2.4,5.65-3.6,9.45-3.6,3.5,0,6.52,1.18,9.08,3.52,2.55,2.35,3.82,5.48,3.82,9.38s-1.23,6.88-3.67,9.23c-2.45,2.35-5.58,3.52-9.38,3.52Zm-10.5,87v-79.05h21v79.05h-21Z"/>
        <path class="cls-2" d="m764.04,176.03v-79.05h18.9l1.35,9.45c2-3,4.25-5.27,6.75-6.82,2.5-1.55,5.1-2.6,7.8-3.15,2.7-.55,5.45-.82,8.25-.82,1.3,0,2.5.03,3.6.07,1.1.05,1.9.08,2.4.08v20.25h-4.95c-4.7,0-8.8.8-12.3,2.4-3.5,1.6-6.18,4.1-8.02,7.5-1.85,3.4-2.77,7.75-2.77,13.05v37.05h-21Z"/>
        <path class="cls-2" d="m855.54,177.07c-8,0-14.62-1.82-19.88-5.47-5.25-3.65-9.18-8.55-11.77-14.7-2.6-6.15-3.9-12.98-3.9-20.48,0-7.9,1.4-14.92,4.2-21.07,2.8-6.15,6.95-10.97,12.45-14.48,5.5-3.5,12.35-5.25,20.55-5.25,2.8,0,5.57.33,8.32.98,2.75.65,5.3,1.6,7.65,2.85,2.35,1.25,4.38,2.88,6.08,4.88v-34.5h21v106.2h-20.4l-.3-8.85c-1.8,2.3-3.97,4.18-6.52,5.62-2.55,1.45-5.28,2.53-8.18,3.23-2.9.7-6,1.05-9.3,1.05Zm4.2-18.9c4.5,0,8.17-1.05,11.02-3.15,2.85-2.1,4.97-4.8,6.38-8.1,1.4-3.3,2.1-6.85,2.1-10.65s-.68-7.47-2.03-10.73c-1.35-3.25-3.45-5.85-6.3-7.8-2.85-1.95-6.58-2.93-11.17-2.93s-8.3,1.05-11.1,3.15c-2.8,2.1-4.78,4.83-5.92,8.17-1.15,3.35-1.73,6.93-1.73,10.73,0,2.8.32,5.48.98,8.02.65,2.55,1.73,4.83,3.23,6.83,1.5,2,3.45,3.58,5.85,4.72,2.4,1.15,5.3,1.73,8.7,1.73Z"/>
      </g>
      <path class="cls-1" d="m123.5,0H0v240.45h123.5c66.4,0,120.23-53.83,120.23-120.22S189.9,0,123.5,0ZM15.73,45.8c.04-11.11,9.55-20.53,20.69-20.51,11.34.02,20.51,9.17,20.54,20.49.03,11.1-9.53,20.69-20.55,20.62-11.13-.07-20.72-9.62-20.68-20.6Zm67.62,123.3c-21.15-9.16-32.48-26.09-33.5-48.87-.86-19.35,7.38-35.13,22.95-47.87,23.16,29.76,45.93,59.04,69.2,88.95-18.84,13.11-38.19,16.66-58.65,7.79Zm87.8,12.26c-30.32-39.04-60.01-77.28-90.11-116.03,21.64-15.59,44.76-20.06,69.49-11.26,29.18,10.4,45.83,31.86,48.98,62.39,2.7,26.2-7.5,47.76-28.36,64.9Z"/>
    </g>
  </g>
</svg>